<svg xmlns="http://www.w3.org/2000/svg" xmlns:xlink="http://www.w3.org/1999/xlink" fill="none" version="1.1" width="24"
     height="24" viewBox="0 0 24 24">
    <g style="mix-blend-mode:passthrough">
        <g style="mix-blend-mode:passthrough"
           transform="matrix(1,-1.224648970167536e-16,1.224648970167536e-16,1,-4.440892098500626e-16,0)">
            <path d="M3.9999999046325683,5.899999904632568L19.999999904632567,5.899999904632568C20.497099904632567,5.899999904632568,20.89999990463257,5.497059904632568,20.89999990463257,4.999999904632569C20.89999990463257,4.502943904632568,20.497099904632567,4.099999904632568,19.999999904632567,4.099999904632568L3.9999999046325683,4.099999904632568C3.5029439046325686,4.099999904632568,3.0999999046325684,4.502943904632568,3.0999999046325684,4.999999904632569C3.0999999046325684,5.497059904632568,3.5029439046325686,5.899999904632568,3.9999999046325683,5.899999904632568Z"
                  fill-rule="evenodd" fill="#283248" fill-opacity="1"/>
        </g>
        <g style="mix-blend-mode:passthrough"
           transform="matrix(1,-1.224648970167536e-16,1.224648970167536e-16,1,-8.881784197001252e-16,8.881784197001252e-16)">
            <path d="M6.999999904632569,9.399999904632569L16.999999904632567,9.399999904632569C17.49709990463257,9.399999904632569,17.89999990463257,8.997059904632568,17.89999990463257,8.499999904632569C17.89999990463257,8.002943904632568,17.49709990463257,7.599999904632568,16.999999904632567,7.599999904632568L6.999999904632569,7.599999904632568C6.502943904632568,7.599999904632568,6.099999904632568,8.002943904632568,6.099999904632568,8.499999904632569C6.099999904632568,8.997059904632568,6.502943904632568,9.399999904632569,6.999999904632569,9.399999904632569Z"
                  fill-rule="evenodd" fill="#283248" fill-opacity="1"/>
        </g>
        <g style="mix-blend-mode:passthrough"
           transform="matrix(1,-1.224648970167536e-16,1.224648970167536e-16,1,-1.7763568394002505e-15,0)">
            <path d="M6.999999904632569,16.400000381469727L16.999999904632567,16.400000381469727C17.49709990463257,16.400000381469727,17.89999990463257,15.997060381469726,17.89999990463257,15.500000381469727C17.89999990463257,15.002944381469726,17.49709990463257,14.600000381469727,16.999999904632567,14.600000381469727L6.999999904632569,14.600000381469727C6.502943904632568,14.600000381469727,6.099999904632568,15.002944381469726,6.099999904632568,15.500000381469727C6.099999904632568,15.997060381469726,6.502943904632568,16.400000381469727,6.999999904632569,16.400000381469727Z"
                  fill-rule="evenodd" fill="#283248" fill-opacity="1"/>
        </g>
        <g style="mix-blend-mode:passthrough"
           transform="matrix(1,-2.7991950747472067e-16,5.034661135734707e-16,1,-5.773159728050814e-15,0)">
            <path d="M3.9999999046325683,12.900000381469727L19.999999904632567,12.900000381469727C20.497099904632567,12.900000381469727,20.89999990463257,12.497060381469726,20.89999990463257,12.000000381469727C20.89999990463257,11.502944381469726,20.497099904632567,11.100000381469727,19.999999904632567,11.100000381469727L3.9999999046325683,11.100000381469727C3.5029439046325686,11.100000381469727,3.0999999046325684,11.502944381469726,3.0999999046325684,12.000000381469727C3.0999999046325684,12.497060381469726,3.5029439046325686,12.900000381469727,3.9999999046325683,12.900000381469727Z"
                  fill-rule="evenodd" fill="#283248" fill-opacity="1"/>
        </g>
        <g style="mix-blend-mode:passthrough"
           transform="matrix(1,-3.6739426753378717e-16,3.6739426753378717e-16,1,-6.661338147750939e-15,0)">
            <path d="M3.9999999046325683,19.900000381469727L19.999999904632567,19.900000381469727C20.497099904632567,19.900000381469727,20.89999990463257,19.497060381469726,20.89999990463257,19.000000381469725C20.89999990463257,18.502944381469728,20.497099904632567,18.100000381469727,19.999999904632567,18.100000381469727L3.9999999046325683,18.100000381469727C3.5029439046325686,18.100000381469727,3.0999999046325684,18.502944381469728,3.0999999046325684,19.000000381469725C3.0999999046325684,19.497060381469726,3.5029439046325686,19.900000381469727,3.9999999046325683,19.900000381469727Z"
                  fill-rule="evenodd" fill="#283248" fill-opacity="1"/>
        </g>
    </g>
</svg>