<svg xmlns="http://www.w3.org/2000/svg" xmlns:xlink="http://www.w3.org/1999/xlink" fill="none" version="1.1" width="24"
     height="24" viewBox="0 0 24 24">
    <g>
        <g>
            <path d="M7,4C7.55228,4,8,4.447715,8,5C8,5,8,11.04336,8,11.04336C8,11.04336,16.8673,5.12332,16.8673,5.12332C17.8641,4.457858,19.200200000000002,5.17236,19.200200000000002,6.37085C19.200200000000002,6.37085,19.200200000000002,18.3861,19.200200000000002,18.3861C19.200200000000002,19.584600000000002,17.8641,20.2991,16.8673,19.6336C16.8673,19.6336,8,13.71359,8,13.71359C8,13.71359,8,20,8,20C8,20.5523,7.55229,21,7,21C7,21,6,21,6,21C5.447716,21,5,20.5523,5,20C5,20,5,5,5,5C5,4.447715,5.447715,4,6,4C6,4,7,4,7,4Z"
                  fill="#283248" fill-opacity="1"/>
        </g>
    </g>
</svg>