<svg xmlns="http://www.w3.org/2000/svg" xmlns:xlink="http://www.w3.org/1999/xlink" fill="none" version="1.1" width="24" height="24" viewBox="0 0 24 24"><g style="mix-blend-mode:passthrough"><g style="mix-blend-mode:passthrough"><path d="M2.1,17.3333L2.1,6.66667Q2.1,5.18931,3.144652,4.144653Q4.1893,3.1,5.66667,3.1L18.3333,3.1Q19.8107,3.1,20.8553,4.144652Q21.9,5.1893,21.9,6.66667L21.9,17.3333Q21.9,18.8107,20.8553,19.8553Q19.8107,20.9,18.3333,20.9L5.66667,20.9Q4.1893,20.9,3.144653,19.8553Q2.1,18.8107,2.1,17.3333ZM3.9,17.3333Q3.9,18.0651,4.41744,18.5826Q4.93489,19.1,5.66667,19.1L18.3333,19.1Q19.0651,19.1,19.5826,18.5826Q20.1,18.0651,20.1,17.3333L20.1,6.66667Q20.1,5.93489,19.5826,5.41744Q19.0651,4.9,18.3333,4.9L5.66667,4.9Q4.93489,4.9,4.41744,5.41744Q3.9,5.93489,3.9,6.66667L3.9,17.3333Z" fill="#283248" fill-opacity="1"/></g><g style="mix-blend-mode:passthrough" transform="matrix(-1,0,0,-1,20,34)"><path d="M13.1,21L13.1,17L14,17L14,17.9L10,17.9L10,16.1L14,16.1Q14.08864,16.1,14.17558,16.117293Q14.26252,16.134587,14.34441,16.168509Q14.42631,16.20243,14.50001,16.251678Q14.57372,16.300924,14.6364,16.363604Q14.69908,16.426284,14.74832,16.499987Q14.79757,16.57369,14.831489999999999,16.655585Q14.86541,16.73748,14.88271,16.824419Q14.9,16.9113578,14.9,17L14.9,21L13.1,21ZM14.9,21Q14.9,21.088639999999998,14.88271,21.17558Q14.86541,21.262520000000002,14.831489999999999,21.34441Q14.79757,21.42631,14.74832,21.50001Q14.69908,21.57372,14.6364,21.636400000000002Q14.57372,21.699080000000002,14.50001,21.74832Q14.42631,21.79757,14.34441,21.83149Q14.26252,21.86541,14.17558,21.88271Q14.08864,21.9,14,21.9Q13.91136,21.9,13.82442,21.88271Q13.73748,21.86541,13.65558,21.83149Q13.57369,21.79757,13.49999,21.74832Q13.42628,21.699080000000002,13.3636,21.636400000000002Q13.30092,21.57372,13.25168,21.50001Q13.20243,21.42631,13.16851,21.34441Q13.13459,21.262520000000002,13.11729,21.17558Q13.1,21.088639999999998,13.1,21Q13.1,20.911360000000002,13.11729,20.82442Q13.13459,20.73748,13.16851,20.65558Q13.20243,20.57369,13.25168,20.49999Q13.30092,20.42628,13.3636,20.363599999999998Q13.42628,20.30092,13.49999,20.25168Q13.57369,20.20243,13.65558,20.16851Q13.73748,20.13459,13.82442,20.11729Q13.91136,20.1,14,20.1Q14.08864,20.1,14.17558,20.11729Q14.26252,20.13459,14.34441,20.16851Q14.42631,20.20243,14.50001,20.25168Q14.57372,20.30092,14.6364,20.363599999999998Q14.69908,20.42628,14.74832,20.49999Q14.79757,20.57369,14.831489999999999,20.65558Q14.86541,20.73748,14.88271,20.82442Q14.9,20.911360000000002,14.9,21ZM10.9,17Q10.9,17.0886422,10.882707,17.175581Q10.865413,17.26252,10.831491,17.344415Q10.79757,17.42631,10.748322,17.500013Q10.699076,17.573716,10.636396,17.636396Q10.573716,17.699076,10.500013,17.748323Q10.42631,17.79757,10.344415,17.831491Q10.26252,17.865413,10.175581,17.882707Q10.0886422,17.9,10,17.9Q9.9113578,17.9,9.824419,17.882707Q9.73748,17.865413,9.655585,17.831491Q9.57369,17.79757,9.499987,17.748322Q9.426284,17.699076,9.363604,17.636396Q9.300924,17.573716,9.251677,17.500013Q9.20243,17.42631,9.168509,17.344415Q9.134587,17.26252,9.117293,17.175581Q9.1,17.0886422,9.1,17Q9.1,16.9113578,9.117293,16.824419Q9.134587,16.73748,9.168509,16.655585Q9.20243,16.57369,9.251678,16.499987Q9.300924,16.426284,9.363604,16.363604Q9.426284,16.300924,9.499987,16.251677Q9.57369,16.20243,9.655585,16.168509Q9.73748,16.134587,9.824419,16.117293Q9.9113578,16.1,10,16.1Q10.0886422,16.1,10.175581,16.117293Q10.26252,16.134587,10.344415,16.168509Q10.42631,16.20243,10.500013,16.251678Q10.573716,16.300924,10.636396,16.363604Q10.699076,16.426284,10.748323,16.499987Q10.79757,16.57369,10.831491,16.655585Q10.865413,16.73748,10.882707,16.824419Q10.9,16.9113578,10.9,17Z" fill="#283248" fill-opacity="1" style="mix-blend-mode:passthrough"/></g><g style="mix-blend-mode:passthrough" transform="matrix(-1,0,0,-1,20,34)"><path d="M9.363604,20.363599999999998L13.3636,16.363604L14.6364,17.636396L10.636396,21.636400000000002L9.363604,20.363599999999998ZM10.9,21Q10.9,21.088639999999998,10.882707,21.17558Q10.865413,21.262520000000002,10.831491,21.34441Q10.79757,21.42631,10.748322,21.50001Q10.699076,21.57372,10.636396,21.636400000000002Q10.573716,21.699080000000002,10.500013,21.74832Q10.42631,21.79757,10.344415,21.83149Q10.26252,21.86541,10.175581,21.88271Q10.0886422,21.9,10,21.9Q9.9113578,21.9,9.824419,21.88271Q9.73748,21.86541,9.655585,21.83149Q9.57369,21.79757,9.499987,21.74832Q9.426284,21.699080000000002,9.363604,21.636400000000002Q9.300924,21.57372,9.251677,21.50001Q9.20243,21.42631,9.168509,21.34441Q9.134587,21.262520000000002,9.117293,21.17558Q9.1,21.088639999999998,9.1,21Q9.1,20.911360000000002,9.117293,20.82442Q9.134587,20.73748,9.168509,20.65558Q9.20243,20.57369,9.251678,20.49999Q9.300924,20.42628,9.363604,20.363599999999998Q9.426284,20.30092,9.499987,20.25168Q9.57369,20.20243,9.655585,20.16851Q9.73748,20.13459,9.824419,20.11729Q9.9113578,20.1,10,20.1Q10.0886422,20.1,10.175581,20.11729Q10.26252,20.13459,10.344415,20.16851Q10.42631,20.20243,10.500013,20.25168Q10.573716,20.30092,10.636396,20.363599999999998Q10.699076,20.42628,10.748323,20.49999Q10.79757,20.57369,10.831491,20.65558Q10.865413,20.73748,10.882707,20.82442Q10.9,20.911360000000002,10.9,21ZM14.9,17Q14.9,17.0886422,14.88271,17.175581Q14.86541,17.26252,14.831489999999999,17.344415Q14.79757,17.42631,14.74832,17.500013Q14.69908,17.573716,14.6364,17.636396Q14.57372,17.699076,14.50001,17.748323Q14.42631,17.79757,14.34441,17.831491Q14.26252,17.865413,14.17558,17.882707Q14.08864,17.9,14,17.9Q13.91136,17.9,13.82442,17.882707Q13.73748,17.865413,13.65558,17.831491Q13.57369,17.79757,13.49999,17.748322Q13.42628,17.699076,13.3636,17.636396Q13.30092,17.573716,13.25168,17.500013Q13.20243,17.42631,13.16851,17.344415Q13.13459,17.26252,13.11729,17.175581Q13.1,17.0886422,13.1,17Q13.1,16.9113578,13.11729,16.824419Q13.13459,16.73748,13.16851,16.655585Q13.20243,16.57369,13.25168,16.499987Q13.30092,16.426284,13.3636,16.363604Q13.42628,16.300924,13.49999,16.251677Q13.57369,16.20243,13.65558,16.168509Q13.73748,16.134587,13.82442,16.117293Q13.91136,16.1,14,16.1Q14.08864,16.1,14.17558,16.117293Q14.26252,16.134587,14.34441,16.168509Q14.42631,16.20243,14.50001,16.251678Q14.57372,16.300924,14.6364,16.363604Q14.69908,16.426284,14.74832,16.499987Q14.79757,16.57369,14.831489999999999,16.655585Q14.86541,16.73748,14.88271,16.824419Q14.9,16.9113578,14.9,17Z" fill="#283248" fill-opacity="1" style="mix-blend-mode:passthrough"/></g><g style="mix-blend-mode:passthrough"><path d="M17.1,11L17.1,7L18,7L18,7.9L14,7.9L14,6.1L18,6.1Q18.088639999999998,6.1,18.17558,6.117293Q18.262520000000002,6.134587,18.34441,6.168509Q18.42631,6.20243,18.50001,6.251678Q18.57372,6.300924,18.636400000000002,6.3636040000000005Q18.699080000000002,6.426284,18.74832,6.499987Q18.79757,6.57369,18.83149,6.655585Q18.86541,6.73748,18.88271,6.824419Q18.9,6.9113578,18.9,7L18.9,11L17.1,11ZM18.9,11Q18.9,11.08864,18.88271,11.17558Q18.86541,11.26252,18.83149,11.34441Q18.79757,11.42631,18.74832,11.50001Q18.699080000000002,11.57372,18.636400000000002,11.6364Q18.57372,11.69908,18.50001,11.74832Q18.42631,11.79757,18.34441,11.831489999999999Q18.262520000000002,11.86541,18.17558,11.88271Q18.088639999999998,11.9,18,11.9Q17.911360000000002,11.9,17.82442,11.88271Q17.73748,11.86541,17.65558,11.831489999999999Q17.57369,11.79757,17.49999,11.74832Q17.42628,11.69908,17.363599999999998,11.6364Q17.30092,11.57372,17.25168,11.50001Q17.20243,11.42631,17.16851,11.34441Q17.13459,11.26252,17.11729,11.17558Q17.1,11.08864,17.1,11Q17.1,10.91136,17.11729,10.82442Q17.13459,10.73748,17.16851,10.65558Q17.20243,10.57369,17.25168,10.49999Q17.30092,10.42628,17.363599999999998,10.3636Q17.42628,10.30092,17.49999,10.25168Q17.57369,10.20243,17.65558,10.16851Q17.73748,10.13459,17.82442,10.11729Q17.911360000000002,10.1,18,10.1Q18.088639999999998,10.1,18.17558,10.11729Q18.262520000000002,10.13459,18.34441,10.16851Q18.42631,10.20243,18.50001,10.25168Q18.57372,10.30092,18.636400000000002,10.3636Q18.699080000000002,10.42628,18.74832,10.49999Q18.79757,10.57369,18.83149,10.65558Q18.86541,10.73748,18.88271,10.82442Q18.9,10.91136,18.9,11ZM14.9,7Q14.9,7.0886422,14.882707,7.175581Q14.865413,7.26252,14.831491,7.344415Q14.79757,7.42631,14.748322,7.500013Q14.699076,7.573716,14.636396,7.6363959999999995Q14.573716,7.699076,14.500013,7.748323Q14.42631,7.79757,14.344415,7.831491Q14.26252,7.865413,14.175581,7.882707Q14.0886422,7.9,14,7.9Q13.9113578,7.9,13.824419,7.882707Q13.73748,7.865413,13.655585,7.831491Q13.57369,7.79757,13.499987,7.748322Q13.426284,7.699076,13.363604,7.6363959999999995Q13.300924,7.573716,13.251677,7.500013Q13.20243,7.42631,13.168509,7.344415Q13.134587,7.26252,13.117293,7.175581Q13.1,7.0886422,13.1,7Q13.1,6.9113578,13.117293,6.824419Q13.134587,6.73748,13.168509,6.655585Q13.20243,6.57369,13.251678,6.499987Q13.300924,6.426284,13.363604,6.3636040000000005Q13.426284,6.300924,13.499987,6.251677Q13.57369,6.20243,13.655585,6.168509Q13.73748,6.134587,13.824419,6.117293Q13.9113578,6.1,14,6.1Q14.0886422,6.1,14.175581,6.117293Q14.26252,6.134587,14.344415,6.168509Q14.42631,6.20243,14.500013,6.251678Q14.573716,6.300924,14.636396,6.3636040000000005Q14.699076,6.426284,14.748323,6.499987Q14.79757,6.57369,14.831491,6.655585Q14.865413,6.73748,14.882707,6.824419Q14.9,6.9113578,14.9,7Z" fill="#283248" fill-opacity="1" style="mix-blend-mode:passthrough"/></g><g style="mix-blend-mode:passthrough"><path d="M13.363604,10.3636L17.363599999999998,6.3636040000000005L18.636400000000002,7.6363959999999995L14.636396,11.6364L13.363604,10.3636ZM14.9,11Q14.9,11.08864,14.882707,11.17558Q14.865413,11.26252,14.831491,11.34441Q14.79757,11.42631,14.748322,11.50001Q14.699076,11.57372,14.636396,11.6364Q14.573716,11.69908,14.500013,11.74832Q14.42631,11.79757,14.344415,11.831489999999999Q14.26252,11.86541,14.175581,11.88271Q14.0886422,11.9,14,11.9Q13.9113578,11.9,13.824419,11.88271Q13.73748,11.86541,13.655585,11.831489999999999Q13.57369,11.79757,13.499987,11.74832Q13.426284,11.69908,13.363604,11.6364Q13.300924,11.57372,13.251677,11.50001Q13.20243,11.42631,13.168509,11.34441Q13.134587,11.26252,13.117293,11.17558Q13.1,11.08864,13.1,11Q13.1,10.91136,13.117293,10.82442Q13.134587,10.73748,13.168509,10.65558Q13.20243,10.57369,13.251678,10.49999Q13.300924,10.42628,13.363604,10.3636Q13.426284,10.30092,13.499987,10.25168Q13.57369,10.20243,13.655585,10.16851Q13.73748,10.13459,13.824419,10.11729Q13.9113578,10.1,14,10.1Q14.0886422,10.1,14.175581,10.11729Q14.26252,10.13459,14.344415,10.16851Q14.42631,10.20243,14.500013,10.25168Q14.573716,10.30092,14.636396,10.3636Q14.699076,10.42628,14.748323,10.49999Q14.79757,10.57369,14.831491,10.65558Q14.865413,10.73748,14.882707,10.82442Q14.9,10.91136,14.9,11ZM18.9,7Q18.9,7.0886422,18.88271,7.175581Q18.86541,7.26252,18.83149,7.344415Q18.79757,7.42631,18.74832,7.500013Q18.699080000000002,7.573716,18.636400000000002,7.6363959999999995Q18.57372,7.699076,18.50001,7.748323Q18.42631,7.79757,18.34441,7.831491Q18.262520000000002,7.865413,18.17558,7.882707Q18.088639999999998,7.9,18,7.9Q17.911360000000002,7.9,17.82442,7.882707Q17.73748,7.865413,17.65558,7.831491Q17.57369,7.79757,17.49999,7.748322Q17.42628,7.699076,17.363599999999998,7.6363959999999995Q17.30092,7.573716,17.25168,7.500013Q17.20243,7.42631,17.16851,7.344415Q17.13459,7.26252,17.11729,7.175581Q17.1,7.0886422,17.1,7Q17.1,6.9113578,17.11729,6.824419Q17.13459,6.73748,17.16851,6.655585Q17.20243,6.57369,17.25168,6.499987Q17.30092,6.426284,17.363599999999998,6.3636040000000005Q17.42628,6.300924,17.49999,6.251677Q17.57369,6.20243,17.65558,6.168509Q17.73748,6.134587,17.82442,6.117293Q17.911360000000002,6.1,18,6.1Q18.088639999999998,6.1,18.17558,6.117293Q18.262520000000002,6.134587,18.34441,6.168509Q18.42631,6.20243,18.50001,6.251678Q18.57372,6.300924,18.636400000000002,6.3636040000000005Q18.699080000000002,6.426284,18.74832,6.499987Q18.79757,6.57369,18.83149,6.655585Q18.86541,6.73748,18.88271,6.824419Q18.9,6.9113578,18.9,7Z" fill="#283248" fill-opacity="1" style="mix-blend-mode:passthrough"/></g></g></svg>